<?xml version="1.0" standalone="no"?>
<!DOCTYPE svg PUBLIC "-//W3C//DTD SVG 20010904//EN"
 "http://www.w3.org/TR/2001/REC-SVG-20010904/DTD/svg10.dtd">
<svg version="1.0" xmlns="http://www.w3.org/2000/svg"
 width="120.000000pt" height="120.000000pt" viewBox="0 0 120.000000 120.000000"
 preserveAspectRatio="xMidYMid meet">

<g transform="translate(0.000000,120.000000) scale(0.100000,-0.100000)"
fill="white" stroke="none"> <!-- Changed fill to white here -->
<path d="M298 1049 l-298 -149 0 -59 0 -60 33 -3 c27 -3 32 -7 35 -33 2 -16 8
-34 13 -40 5 -5 9 -28 9 -51 0 -76 32 -66 34 10 l1 41 53 3 52 3 0 -210 0
-211 -55 0 -56 0 2 131 c0 71 -1 133 -4 136 -19 19 -27 -20 -27 -136 0 -70 -4
-131 -9 -136 -5 -6 -11 -23 -13 -40 -2 -16 -6 -28 -9 -25 -15 13 -39 -25 -39
-61 0 -22 -5 -39 -10 -39 -7 0 -10 -22 -8 -57 l3 -58 595 0 595 0 3 58 c2 35
-1 57 -8 57 -5 0 -10 17 -10 39 0 36 -24 74 -39 61 -3 -3 -7 9 -9 25 -2 17 -8
34 -13 40 -5 5 -9 66 -9 136 0 116 -8 155 -27 136 -3 -3 -4 -65 -4 -136 l2
-131 -56 0 -55 0 0 211 0 210 53 -3 52 -3 1 -41 c2 -76 34 -86 34 -10 0 23 4
46 9 52 5 5 11 23 13 39 3 26 8 30 36 33 l32 3 0 60 0 59 -300 150 c-165 82
-301 150 -302 149 -2 0 -137 -67 -300 -150z m593 -34 l264 -134 3 -35 3 -36
-560 0 -561 0 0 35 0 35 278 139 c152 77 284 138 293 135 9 -2 135 -65 280
-139z m-636 -255 c0 -12 -17 -16 -77 -18 -73 -3 -78 -2 -78 18 0 20 5 21 78
18 60 -2 77 -6 77 -18z m235 -14 c0 -19 5 -38 10 -41 13 -8 14 -407 1 -421 -5
-5 -11 -22 -13 -39 -2 -16 -6 -29 -10 -27 -5 1 -48 2 -98 2 l-90 0 0 29 c0 17
-4 33 -10 36 -6 4 -10 87 -10 216 0 133 4 209 10 209 6 0 10 16 10 35 l0 35
100 0 100 0 0 -34z m188 12 c3 -16 -6 -18 -77 -18 -61 0 -81 3 -81 13 0 24 13
28 84 25 58 -2 71 -6 74 -20z m232 -13 c0 -19 5 -35 10 -35 14 0 14 -417 0
-425 -5 -3 -10 -19 -10 -36 l0 -29 -90 0 c-49 0 -93 -1 -97 -2 -5 -2 -9 11
-11 27 -2 17 -8 34 -13 39 -5 6 -9 29 -9 52 0 45 -16 66 -31 43 -5 -8 -9 -31
-9 -51 l0 -38 -50 0 -50 0 0 210 0 210 50 0 50 0 0 -129 c0 -95 3 -131 13
-140 8 -6 17 -8 20 -4 4 3 7 64 7 134 0 74 4 130 10 134 6 3 10 22 10 41 l0
34 100 0 100 0 0 -35z m190 15 c0 -18 -7 -20 -74 -20 -41 0 -78 5 -81 10 -13
22 9 30 81 30 67 0 74 -2 74 -20z m-842 -526 c-2 -13 -17 -16 -78 -16 -61 0
-76 3 -78 16 -3 14 8 16 78 16 70 0 81 -2 78 -16z m420 0 c-2 -13 -17 -16 -78
-16 -61 0 -76 3 -78 16 -3 14 8 16 78 16 70 0 81 -2 78 -16z m420 0 c-2 -13
-17 -16 -78 -16 -61 0 -76 3 -78 16 -3 14 8 16 78 16 70 0 81 -2 78 -16z m40
-81 l-3 -28 -535 0 -535 0 -3 28 -3 27 541 0 541 0 -3 -27z m22 -83 c0 -11 0
-22 0 -25 0 -3 -252 -5 -560 -5 -308 0 -560 2 -560 5 0 3 0 14 0 25 0 20 7 20
560 20 553 0 560 0 560 -20z"/>
<path d="M348 996 c-131 -66 -238 -127 -238 -133 0 -10 105 -13 490 -13 385 0
490 3 490 13 0 12 -476 258 -495 256 -5 -1 -117 -56 -247 -123z m454 -16 l193
-100 -395 0 -395 0 190 99 c105 55 196 100 202 100 7 1 99 -44 205 -99z"/>
</g>
</svg>